<svg width="344" height="344" viewBox="0 0 344 344" fill="none" xmlns="http://www.w3.org/2000/svg">
<mask id="mask0_210_3115" style="mask-type:alpha" maskUnits="userSpaceOnUse" x="0" y="0" width="344" height="344">
<circle cx="172" cy="172" r="172" fill="#D9D9D9"/>
</mask>
<g mask="url(#mask0_210_3115)">
<path d="M327.463 343.499H16.6365C16.6365 343.499 20.8072 323.793 26.7506 303.877C32.6939 284.066 44.9977 275.724 60.9509 271.658C76.7999 267.591 139.57 247.989 139.57 247.989L171.893 245.486H172.102H172.206L201.402 247.78C201.402 247.78 267.3 267.591 283.149 271.658C299.102 275.724 311.406 284.066 317.349 303.877C323.292 323.793 327.463 343.499 327.463 343.499Z" fill="#E9356E"/>
<path d="M262.503 328.902H224.549C223.715 328.902 222.985 329.632 222.985 330.466V343.5H226.218V332.135H260.939V343.5H264.067V330.466C264.067 329.632 263.442 328.902 262.503 328.902Z" fill="#C4205C"/>
<path d="M173.875 291.68C173.875 293.661 172.206 295.329 170.225 295.329C168.14 295.329 166.471 293.661 166.471 291.68C166.471 289.594 168.14 288.03 170.225 288.03C172.206 288.03 173.875 289.594 173.875 291.68Z" fill="#F5EFFF"/>
<path d="M173.875 311.073C173.875 313.159 172.206 314.723 170.225 314.723C168.14 314.723 166.471 313.159 166.471 311.073C166.471 309.092 168.14 307.424 170.225 307.424C172.206 307.424 173.875 309.092 173.875 311.073Z" fill="#F5EFFF"/>
<path d="M173.875 330.466C173.875 332.551 172.206 334.22 170.225 334.22C168.14 334.22 166.471 332.551 166.471 330.466C166.471 328.485 168.14 326.816 170.225 326.816C172.206 326.816 173.875 328.485 173.875 330.466Z" fill="#F5EFFF"/>
<path d="M172.207 245.383V245.488H172.102L172.207 245.383Z" fill="#5D46C2"/>
<path d="M172.102 245.487H171.894V245.383L172.102 245.487Z" fill="#5D46C2"/>
<path d="M200.88 255.705C200.88 255.705 192.852 270.72 170.33 270.72C148.642 270.72 139.466 254.976 139.466 254.976L140.821 244.132L141.03 242.359L143.115 225.259L196.918 226.719L197.752 233.288L198.065 235.373L200.88 255.705Z" fill="#FF8881"/>
<path d="M141.03 242.359C141.03 242.359 121.844 245.592 107.768 257.895C107.768 257.895 111.835 282.086 139.466 305.964L170.33 270.721C170.33 270.721 149.684 262.9 141.03 242.359Z" fill="#C4205C"/>
<path d="M198.9 242.359C198.9 242.359 218.085 245.592 232.161 257.895C232.161 257.895 228.095 282.086 200.464 305.964L169.6 270.721C169.6 270.721 190.245 262.9 198.9 242.359Z" fill="#C4205C"/>
<path d="M197.752 233.288C185.553 243.61 165.846 247.468 140.821 244.132L141.03 242.359L143.115 225.259L196.918 226.719L197.752 233.288Z" fill="#19274B"/>
<path d="M122.887 180.839C110.896 197.626 85.037 186.365 86.8096 164.052C88.3736 143.823 111 147.056 111 147.056L122.887 180.839Z" fill="#F55B5D"/>
<path d="M111.834 181.361C111.104 181.361 110.479 180.84 110.27 180.11C107.976 170.517 98.0707 161.654 97.9664 161.55C97.2365 160.924 97.2365 159.882 97.7579 159.256C98.3835 158.63 99.4262 158.526 100.052 159.152C100.469 159.465 110.792 168.745 113.398 179.38C113.607 180.214 113.085 181.048 112.251 181.257C112.112 181.326 111.973 181.361 111.834 181.361Z" fill="#D1373F"/>
<path d="M107.768 172.185C107.559 172.185 107.385 172.185 107.246 172.185C102.867 170.725 98.592 171.559 98.592 171.559C97.7579 171.768 96.8194 171.246 96.7152 170.412C96.5066 169.474 97.028 168.64 97.8621 168.431C98.0707 168.431 102.971 167.389 108.289 169.057C109.123 169.37 109.54 170.308 109.227 171.142C109.019 171.768 108.393 172.185 107.768 172.185Z" fill="#D1373F"/>
<path d="M211.933 180.839C224.028 197.626 249.887 186.365 248.114 164.052C246.55 143.823 223.924 147.056 223.924 147.056L211.933 180.839Z" fill="#F55B5D"/>
<path d="M222.986 181.361C222.916 181.361 222.812 181.326 222.673 181.257C221.839 181.048 221.213 180.214 221.526 179.38C224.028 168.745 234.351 159.465 234.872 159.152C235.498 158.526 236.541 158.63 237.062 159.256C237.688 159.882 237.583 160.924 236.958 161.55C236.853 161.654 226.948 170.517 224.55 180.11C224.445 180.84 223.715 181.361 222.986 181.361Z" fill="#D1373F"/>
<path d="M227.156 172.185C226.531 172.185 225.905 171.768 225.697 171.142C225.384 170.308 225.801 169.37 226.635 169.057C231.953 167.389 236.853 168.431 237.062 168.431C237.896 168.64 238.417 169.474 238.209 170.412C238 171.246 237.166 171.768 236.332 171.559C236.228 171.559 232.057 170.725 227.678 172.185C227.539 172.185 227.365 172.185 227.156 172.185Z" fill="#D1373F"/>
<path d="M106.204 122.553C106.204 122.553 100.261 158.943 115.484 194.499C129.352 226.822 147.703 236.936 167.201 237.145C189.411 237.562 235.915 224.737 228.512 119.32C223.611 48.1046 112.043 50.607 106.204 122.553Z" fill="#FF8881"/>
<g opacity="0.5">
<path d="M147.599 180.631C147.599 184.594 140.717 187.826 132.167 187.826C123.721 187.826 116.735 184.594 116.735 180.631C116.735 176.773 123.721 173.541 132.167 173.541C140.717 173.541 147.599 176.773 147.599 180.631Z" fill="#F55B5D"/>
</g>
<g opacity="0.5">
<path d="M224.549 180.631C224.549 184.594 217.668 187.826 209.118 187.826C200.672 187.826 193.686 184.594 193.686 180.631C193.686 176.773 200.672 173.541 209.118 173.541C217.668 173.541 224.549 176.773 224.549 180.631Z" fill="#F55B5D"/>
</g>
<path d="M231.118 148.62C231.118 148.62 232.265 175.001 224.445 208.054C211.829 260.918 168.87 253.932 168.87 253.932C168.87 253.932 126.745 260.918 114.128 208.054C106.308 175.001 102.971 150.393 102.971 150.393L112.877 137.359C112.877 137.359 117.673 182.925 135.086 190.85C135.086 190.85 142.907 178.963 168.87 190.015C194.833 178.963 203.487 190.85 203.487 190.85C220.9 182.925 222.36 139.028 222.36 139.028L231.118 148.62Z" fill="#19274B"/>
<path d="M119.342 100.448C119.342 100.448 123.512 127.766 111.834 137.776V160.298L105.057 162.384C105.057 162.384 99.1135 132.25 96.8195 115.463C92.4402 82.9305 122.887 78.7598 122.887 78.7598L119.342 100.448Z" fill="#19274B"/>
<path d="M214.957 100.448C214.957 100.448 210.786 127.766 222.36 137.776V160.298L229.242 162.384C229.242 162.384 235.185 132.25 237.375 115.463C241.858 82.9305 211.307 78.7598 211.307 78.7598L214.957 100.448Z" fill="#19274B"/>
<path d="M101.095 98.6757C101.095 98.6757 80.6579 62.5985 129.039 49.4606C162.822 40.1806 208.388 49.8777 222.985 26C222.985 26 227.156 42.3703 219.023 52.9015C219.023 52.9015 241.024 46.2282 247.176 33.2989C247.176 33.2989 254.788 53.6314 243.005 69.2718C243.005 69.2718 252.077 72.1913 260.105 65.8309C260.105 65.8309 259.375 110.041 226.635 107.643C226.635 107.643 219.649 102.325 207.762 98.6757C195.771 95.0263 185.97 113.482 154.793 105.662C127.058 98.6757 115.588 94.2964 101.095 98.6757Z" fill="#19274B"/>
<path d="M169.912 219.524C165.325 219.524 161.779 217.856 161.467 217.751C160.841 217.439 160.528 216.709 160.841 215.979C161.154 215.353 161.988 215.04 162.614 215.353C162.718 215.353 170.955 219.003 177.524 214.623C178.15 214.206 178.984 214.415 179.401 215.04C179.818 215.666 179.609 216.5 179.088 216.917C176.064 218.898 172.832 219.524 169.912 219.524Z" fill="#33476D"/>
<path d="M174.709 184.176C174.639 184.176 174.605 184.176 174.605 184.176L164.803 183.446C164.073 183.342 163.552 182.716 163.552 181.986C163.656 181.256 164.282 180.735 165.012 180.735L173.145 181.36L170.642 156.544C170.538 155.814 171.059 155.189 171.789 155.085C172.519 154.98 173.249 155.502 173.249 156.232L175.96 182.716C176.064 183.133 175.96 183.55 175.647 183.759C175.334 184.071 175.022 184.176 174.709 184.176Z" fill="#F55B5D"/>
<path d="M148.954 196.376C160.945 198.252 173.249 198.982 189.619 195.75C189.619 195.75 188.16 213.267 168.766 213.372C152.187 213.372 148.954 196.376 148.954 196.376Z" fill="#F5EFFF"/>
<path d="M148.016 156.441C148.016 161.029 145.93 164.782 143.324 164.782C140.717 164.782 138.632 161.029 138.632 156.441C138.632 151.749 140.717 147.995 143.324 147.995C145.93 147.995 148.016 151.749 148.016 156.441Z" fill="#19274B"/>
<path d="M198.065 156.441C198.065 161.029 195.98 164.782 193.373 164.782C190.766 164.782 188.681 161.029 188.681 156.441C188.681 151.749 190.766 147.995 193.373 147.995C195.98 147.995 198.065 151.749 198.065 156.441Z" fill="#19274B"/>
<path d="M134.982 137.986C138.215 136.213 143.115 134.024 147.808 133.398C150.31 132.981 151.874 130.478 151.04 128.08L150.831 127.559C150.206 125.891 148.537 124.744 146.661 124.952C142.49 125.369 135.087 126.829 130.186 131.73C129.143 132.772 128.831 134.336 129.248 135.692C129.977 138.09 132.688 139.237 134.982 137.986Z" fill="#19274B"/>
<path d="M201.819 137.986C198.586 136.213 193.686 134.024 188.994 133.398C186.491 132.981 184.927 130.478 185.761 128.08L185.97 127.559C186.595 125.891 188.264 124.744 190.141 124.952C194.311 125.369 201.715 126.829 206.511 131.73C207.658 132.772 207.971 134.336 207.554 135.692C206.824 138.09 204.008 139.237 201.819 137.986Z" fill="#19274B"/>
</g>
</svg>
